:SAMPLES-PER-SECOND 30
:FULLY-SPECIFIED
:DEGREES
273
root  0.929862 39.4714 -49.3845 0.143661 -50.8645 -6.51586
RightUpLeg  -0.450986 -6.67361 0.624023
RightLeg  17.2837 -4.31325 -1.78137
RightFoot  -12.0265 -0.0388538 7.15922
RightToes  -5.82094e-011 -1.98785e-016 -5.10186e-018
Spine  10.8077 -2.45618 -2.66441
Spine1  8.69149 -6.06317 12.3093
HEad  27.5694 -6.33346 -1.37057
LeftShoulder1  1.19323 -0.15137 -26.4925
LeftArm  -15.5868 24.7587 -49.2924
LeftForeArm  104.977 -77.1645 -34.7855
LeftHand  0.579487 -1.91269 -9.20388
RightShoulder  2.63481 4.42006 27.279
RightArm  -1.36627 -22.7834 40.3604
RightForeArm  25.1433 40.51 7.94455
RightHand  -1.70083 6.84976 -16.3492
LeftUpLeg  -11.3208 13.6891 12.4314
LeftLeg  27.1508 20.611 11.4111
LeftFoot  0.407871 1.05305 -10.2369
LeftToes  -8.4584e-011 5.90861e-011 8.40072e-012
274
root  0.956615 39.4801 -49.3874 0.235074 -51.4093 -6.46078
RightUpLeg  -0.674117 -6.69324 0.487341
RightLeg  17.2948 -3.77124 -1.58952
RightFoot  -12.1009 -0.0330068 7.42282
RightToes  -5.82094e-011 -1.98785e-016 -5.10186e-018
Spine  10.7161 -2.43435 -2.47546
Spine1  8.8277 -6.1183 12.6137
HEad  27.7613 -6.78628 -1.75786
LeftShoulder1  1.13817 0.0587741 -26.9007
LeftArm  -15.809 27.2142 -49.0566
LeftForeArm  103.917 -76.3339 -32.1442
LeftHand  0.78874 -1.26865 -13.4611
RightShoulder  2.60166 4.31526 27.3019
RightArm  -0.645241 -23.1742 40.1874
RightForeArm  25.3675 41.0236 8.0897
RightHand  -1.62784 6.66906 -15.8989
LeftUpLeg  -11.174 13.9007 12.4413
LeftLeg  26.826 20.0252 10.9775
LeftFoot  -0.0710989 0.956349 -9.67293
LeftToes  -8.4584e-011 5.90861e-011 8.40072e-012
275
root  0.967109 39.497 -49.3183 0.257832 -51.664 -6.36457
RightUpLeg  -0.663413 -6.82023 0.266792
RightLeg  17.1215 -3.38567 -1.45148
RightFoot  -12.0703 -0.0353958 7.32213
RightToes  -5.82094e-011 -1.98785e-016 -5.10186e-018
Spine  10.3281 -2.36962 -2.32977
Spine1  9.23613 -6.16797 12.9767
HEad  27.9262 -6.73291 -2.47236
LeftShoulder1  1.01587 0.455814 -27.1869
LeftArm  -16.7363 29.1284 -49.5236
LeftForeArm  102.834 -75.4501 -29.7146
LeftHand  1.0137 -2.54793 -14.5889
RightShoulder  2.49885 3.99685 27.3497
RightArm  -0.0907646 -23.5288 39.7456
RightForeArm  26.2268 41.2835 8.11515
RightHand  -1.54914 6.97439 -14.792
LeftUpLeg  -10.7418 13.9988 12.383
LeftLeg  26.0961 19.6672 10.4917
LeftFoot  -0.566465 0.905198 -9.54985
LeftToes  -8.4584e-011 5.90861e-011 8.40072e-012
276
root  0.952328 39.5197 -49.2096 0.147318 -51.5418 -6.07519
RightUpLeg  -0.5149 -6.99586 -0.0685748
RightLeg  16.8416 -3.34149 -1.43781
RightFoot  -11.9023 -0.045174 7.28806
RightToes  -5.82094e-011 -1.98785e-016 -5.10186e-018
Spine  10.0497 -2.2679 -2.65771
Spine1  9.257 -6.28249 13.6241
HEad  27.904 -4.97049 -2.9306
LeftShoulder1  0.839335 0.974176 -27.0272
LeftArm  -17.7047 31.0544 -50.1301
LeftForeArm  100.717 -75.1367 -29.1178
LeftHand  0.851088 -1.71878 -13.7484
RightShoulder  2.48377 3.86408 27.7602
RightArm  -0.101395 -23.9288 39.2827
RightForeArm  25.6833 40.9283 8.03946
RightHand  -1.52447 6.83677 -14.719
LeftUpLeg  -10.3191 14.4485 12.1521
LeftLeg  25.2763 19.0092 9.8404
LeftFoot  -1.02989 0.893593 -9.8196
LeftToes  -8.4584e-011 5.90861e-011 8.40072e-012
277
root  0.935932 39.5605 -49.0617 -0.344099 -51.2502 -5.5692
RightUpLeg  0.0272123 -6.79141 -0.529163
RightLeg  16.3505 -3.7285 -1.59314
RightFoot  -11.659 -0.0588727 7.34461
RightToes  -5.82094e-011 -1.98785e-016 -5.10186e-018
Spine  10.2371 -2.10631 -2.98721
Spine1  8.94349 -6.2231 13.9749
HEad  27.1281 -1.84794 -2.7692
LeftShoulder1  0.650355 1.52912 -26.7754
LeftArm  -18.6002 32.2208 -50.3752
LeftForeArm  99.48 -75.1131 -29.1905
LeftHand  0.836229 -2.07246 -12.8123
RightShoulder  2.40011 3.57551 27.9637
RightArm  -0.580089 -24.4076 39.3543
RightForeArm  24.8645 40.2293 7.87621
RightHand  -1.64095 6.85038 -15.7962
LeftUpLeg  -9.58424 14.9816 11.7197
LeftLeg  24.2962 18.4905 9.21485
LeftFoot  -1.50678 0.856351 -9.82788
LeftToes  -8.4584e-011 5.90861e-011 8.40072e-012
278
root  0.915547 39.6196 -48.8565 -1.0129 -50.5139 -4.86985
RightUpLeg  0.796529 -6.97851 -1.23779
RightLeg  15.7197 -4.17249 -1.76961
RightFoot  -11.5106 -0.066748 7.81749
RightToes  -5.82094e-011 -1.98785e-016 -5.10186e-018
Spine  10.1431 -2.09437 -2.92303
Spine1  8.93899 -6.0956 13.5844
HEad  25.8502 3.14932 -2.27428
LeftShoulder1  0.660337 1.47581 -26.3834
LeftArm  -18.9909 32.812 -49.8409
LeftForeArm  99.817 -75.7271 -30.7835
LeftHand  0.893499 -2.59164 -12.7712
RightShoulder  2.38771 3.46851 28.317
RightArm  -1.5375 -24.9382 39.4311
RightForeArm  23.5014 39.4571 7.72874
RightHand  -1.67554 6.52435 -16.5328
LeftUpLeg  -8.73942 15.2067 10.9706
LeftLeg  22.9178 18.3837 8.63797
LeftFoot  -1.68753 0.790043 -9.22926
LeftToes  -8.4584e-011 5.90861e-011 8.40072e-012
279
root  0.890418 39.6934 -48.6074 -1.60736 -49.7441 -4.06596
RightUpLeg  1.48818 -6.1364 -1.80083
RightLeg  15.0077 -5.73467 -2.38008
RightFoot  -11.3336 -0.0772146 8.6395
RightToes  -5.82094e-011 -1.98785e-016 -5.10186e-018
Spine  9.82077 -1.99518 -2.98882
Spine1  9.09574 -5.98507 13.3918
HEad  24.3467 9.97284 -2.18212
LeftShoulder1  0.65992 1.47947 -26.4298
LeftArm  -19.4106 32.0242 -49.2331
LeftForeArm  99.5305 -75.7311 -30.8363
LeftHand  0.862295 -2.89653 -11.8495
RightShoulder  2.3922 3.53472 28.0494
RightArm  -1.6634 -25.444 39.3938
RightForeArm  22.482 38.6863 7.56524
RightHand  -1.71886 6.69679 -16.7165
LeftUpLeg  -7.79762 15.4706 10.0966
LeftLeg  21.0454 18.4737 7.98515
LeftFoot  -1.10224 0.765233 -8.45825
LeftToes  -8.4584e-011 5.90861e-011 8.40072e-012
